# xmcd CD database file
#
# Track frame offsets:
#	150
#	15037
#	26545
#	46935
#	61450
#	74286
#	92656
#	125974
#	140529
#	163329
#
# Disc length: 2941 seconds
#
# Revision: 0
# Processed by: cddbd v1.5.2PL0 Copyright (c) Steve Scherf et al.
# Submitted via: CDex 1.70beta2
#
DISCID=860b7b0a
DTITLE=Various Artist - The Big Classical Jazz Of 20th Century
DYEAR=2002
DGENRE=Jazz
TTITLE0=Mona Lisa
TTITLE1=What aDifference a Day Makes
TTITLE2=Indiana
TTITLE3=Billie's Bounce
TTITLE4=Strange Fruit
TTITLE5=Take 5
TTITLE6=Autuma Leaves
TTITLE7=Sentimental Journey
TTITLE8=The Thrill Is Gone
TTITLE9=Jingles
EXTD=YEAR: 2002
EXTT0=
EXTT1=
EXTT2=
EXTT3=
EXTT4=
EXTT5=
EXTT6=
EXTT7=
EXTT8=
EXTT9=
PLAYORDER=
